<?xml version="1.0" encoding="UTF-8"?>
<svg id="Warstwa_1" data-name="Warstwa 1" xmlns="http://www.w3.org/2000/svg" viewBox="0 0 841.89 595.28">
  <defs>
    <style>
      .cls-1 {
        fill-rule: evenodd;
      }

      .cls-1, .cls-2, .cls-3 {
        stroke-width: 0px;
      }

      .cls-1, .cls-3 {
        fill: #fff;
      }

      .cls-2 {
        fill: #1d1d1b;
      }
    </style>
  </defs>
  <rect class="cls-2" x="-9.31" y="-12.55" width="859.15" height="615.17"/>
  <g>
    <path class="cls-3" d="m83.99,368.62l5.02-9.51c4.87,3.58,11.26,5.56,17.58,5.56,6.77,0,11.04-2.36,11.04-6.24,0-8.53-26.41-3.96-26.41-20.93,0-10.96,9.59-18.04,24.36-18.04,7.15,0,13.78,1.6,18.42,4.57l-4.64,9.44c-4.03-2.74-9.21-4.11-14.46-4.11-7.15,0-11.34,2.74-11.34,6.55-.08,8.75,26.41,4.19,26.41,20.55,0,11.04-9.74,18.11-24.58,18.11-8.68,0-16.9-2.59-21.39-5.94Z"/>
    <path class="cls-3" d="m191.84,328.36l-35.85,35.24h29.83l-2.05,10.05h-46.58l1.6-7.99,35.92-35.24h-28.08l2.05-10.05h44.75l-1.6,7.99Z"/>
    <path class="cls-3" d="m229.67,345.03l18.5,28.62h-13.85l-13.7-20.85-8.6,7.61-2.66,13.24h-12.25l10.66-53.28h12.25l-4.87,24.43,27.63-24.43h14.92l-28.01,24.66Z"/>
    <path class="cls-3" d="m258.52,351.42c0-18.19,13.32-31.97,32.96-31.97,16.21,0,25.95,9.44,25.95,23.14,0,18.19-13.32,31.97-32.96,31.97-16.21,0-25.95-9.44-25.95-23.14Zm46.43-8.14c0-7.92-5.17-13.32-14.54-13.32-12.03,0-19.41,9.51-19.41,20.78,0,7.92,5.18,13.32,14.54,13.32,12.03,0,19.41-9.51,19.41-20.78Z"/>
    <path class="cls-3" d="m368.5,363.6l-2.05,10.05h-39.04l3.96-19.71-4.11,2.66-4.03-6.09,10.12-6.62,4.72-23.52h12.41l-2.82,14.16,8.45-5.56,3.96,6.17-14.46,9.44-3.81,19.03h26.71Z"/>
    <path class="cls-3" d="m417.06,362.23h-24.81l-6.93,11.42h-13.17l34.48-53.28h12.18l13.09,53.28h-12.33l-2.51-11.42Zm-2.06-9.36l-4.49-20.55-12.56,20.55h17.05Z"/>
    <path class="cls-3" d="m463.72,366.57l8.14-7.76c2.21,3.58,5.33,5.63,9.36,5.63,4.72,0,7.69-2.59,8.83-8.3l5.1-25.88h-18.65l1.98-9.89h30.9l-7.08,35.16c-2.74,14-9.67,19.03-21.23,19.03-8.14,0-14.08-2.82-17.35-7.99Z"/>
    <path class="cls-3" d="m552.92,362.23h-24.81l-6.93,11.42h-13.17l34.48-53.28h12.18l13.09,53.28h-12.33l-2.51-11.42Zm-2.05-9.36l-4.49-20.55-12.56,20.55h17.05Z"/>
    <path class="cls-3" d="m629.8,328.36l-35.85,35.24h29.83l-2.05,10.05h-46.58l1.6-7.99,35.92-35.24h-28.08l2.06-10.05h44.75l-1.6,7.99Z"/>
    <path class="cls-3" d="m645.7,320.37h22.3c16.44,0,26.26,8.6,26.26,22.22,0,18.8-13.47,31.05-33.18,31.05h-26.03l10.66-53.28Zm15.76,43.15c12.79,0,20.32-8.68,20.32-20.25,0-7.92-5.1-12.79-15.15-12.79h-10.58l-6.62,33.03h12.03Z"/>
    <path class="cls-3" d="m730.19,355.15l-3.65,18.5h-12.33l3.73-19.03-13.7-34.25h12.33l9.51,23.75,19.1-23.75h12.71l-27.7,34.78Z"/>
  </g>
  <g>
    <path class="cls-3" d="m292.99,411.87c0,11.2-8.01,17.96-20.91,17.96h-10.7l-2.57,12.64h-8.14l8.76-43.81h16.9c10.58,0,16.65,4.88,16.65,13.21Zm-8.2.75c0-4.76-3.38-7.07-9.33-7.07h-9.26l-3.44,17.4h9.64c7.89,0,12.39-3.57,12.39-10.33Z"/>
    <path class="cls-3" d="m328.54,432.34h-22.03l-6.32,10.14h-8.7l28.48-43.81h8.08l10.89,43.81h-8.07l-2.32-10.14Zm-1.5-6.38l-4.44-19.28-12.08,19.28h16.52Z"/>
    <path class="cls-3" d="m346.31,437.97l3.44-6.38c3.63,2.94,8.95,4.76,14.27,4.76,6.38,0,10.52-2.32,10.52-6.2,0-8.14-22.09-3.88-22.09-17.96,0-8.64,7.76-14.15,19.09-14.15,5.63,0,10.95,1.31,14.65,3.69l-3.19,6.45c-3.25-2.19-7.51-3.38-11.89-3.38-6.63,0-10.58,2.69-10.58,6.51,0,8.2,22.09,4.19,22.09,17.59,0,8.7-7.82,14.21-19.34,14.21-6.88,0-13.52-2.19-16.96-5.13Zm30.42-51.45h9.39l-11.83,8.58h-7.01l9.45-8.58Z"/>
    <path class="cls-3" d="m440.32,398.67l-8.76,43.81h-6.7l-17.96-30.67-6.13,30.67h-8.07l8.76-43.81h6.7l18.03,30.67,6.07-30.67h8.07Z"/>
    <path class="cls-3" d="m456.53,398.67h8.14l-8.76,43.81h-8.14l8.76-43.81Z"/>
    <path class="cls-3" d="m473.05,424.39c0-14.83,10.7-26.35,26.98-26.35,7.51,0,13.58,2.57,16.65,7.32l-5.88,4.95c-2.38-3.32-6.13-5.13-11.33-5.13-11.2,0-18.21,8.45-18.21,18.71,0,7.26,4.76,12.08,13.71,12.08,4.88,0,9.14-1.63,12.46-5.07l4.76,5.13c-4.26,4.88-10.58,7.07-17.84,7.07-13.33,0-21.28-7.64-21.28-18.71Z"/>
    <path class="cls-3" d="m546.59,419.07l15.58,23.41h-9.08l-12.46-18.46-8.33,7.26-2.25,11.2h-8.07l8.76-43.81h8.07l-4.44,22.16,25.48-22.16h10.26l-23.41,20.34-.12.06Z"/>
    <path class="cls-3" d="m580.76,398.67h8.14l-8.76,43.81h-8.14l8.76-43.81Z"/>
  </g>
  <g>
    <path class="cls-1" d="m170.81,265.46c4.98-4.34,11.48-9.24,19.62-13.7,11.86-6.51,22.91-9.74,31.13-11.44-1.1-1.5-4.27-6.25-2.89-11.11,2.02-7.09,12.45-9.83,19.89-8.22,5.67,1.23,9.27,4.91,10.76,6.65,4.4-2.97,11.05-7.35,19.33-12.37,22.55-13.67,34.81-20.98,51.47-24.86,6.82-1.59,17.19-3.26,30.46-2.45-11.16,18.68-22.31,37.36-33.47,56.04-25.16-.2-50.32-.4-75.48-.6-11.34,1.91-24.25,4.81-38.2,9.27-12.3,3.94-23.2,8.38-32.64,12.79Z"/>
    <path class="cls-1" d="m360.87,187.32c-10.28,19.22-20.57,38.44-30.85,57.66,17.01.76,38.46,1.38,61.99,1.15,7.43-.07,18.77-.33,24.22-7.78,2.04-2.78,2.7-5.82,3.17-12.97.5-7.55.69-18.37-.86-31.71-19.22-2.11-38.44-4.23-57.66-6.34Z"/>
    <path class="cls-1" d="m596.07,215.84c-36.6-2.89-73.19-5.78-109.79-8.67-3.61,3.85-7.22,7.7-10.83,11.56,7.22,9.87,14.45,19.74,21.67,29.61,13.92,2.67,28.8,4.95,44.55,6.62,37.09,3.94,70.78,3.62,99.9,1.33-15.17-13.48-30.34-26.97-45.5-40.45Z"/>
    <path class="cls-1" d="m399.87,266.99c-10.9,2.52-26.05,5.71-44.25,8.57-62.96,9.89-108.89,7.36-108.93,8.76-.02,1.01,23.58,2.92,120.82,6.89,10.78-8.07,21.57-16.15,32.35-24.22Z"/>
    <path class="cls-1" d="m669.62,273.04c-5.16-2.74-10.33-5.49-15.49-8.23-3.5,2.7-6.99,5.4-10.49,8.1-32.9-1.39-65.81-2.79-98.71-4.18-10.54-3.98-33.46-12.11-56.39-15.81-7.93-1.28-15.93-2.04-25.51-.26-7.72,1.43-13.77,4.01-17.7,5.99,1.29,3.25,3.8,8.35,8.59,13.28,6.03,6.2,12.6,8.96,16.14,10.15,20.03.71,40.07,1.42,60.1,2.13,3.78-3.66,7.55-7.31,11.33-10.97,33.72,1.21,67.45,2.42,101.17,3.63-.24,2.4-.04,5.51,1.79,8.26,2.1,3.18,5.29,4.29,8.95,5.57,3.05,1.06,8.48,2.46,15.73,1.69.65-1.29,1.29-2.58,1.94-3.87-.48-5.16-.97-10.33-1.45-15.49Z"/>
    <path class="cls-3" d="m467.77,180.23c4.53-12.95,9.06-25.89,13.59-38.84-15.98-1.73-31.97-3.46-47.95-5.18-6.07,13.63-12.14,27.25-18.21,40.88-27.74-.56-53.1.64-75.56,2.72,29.93.73,62.69,3.69,97.56,10.2,8.89,1.66,17.55,3.48,25.95,5.43,17.8-.83,37.33-.95,58.33.09,21.56,1.07,41.47,3.2,59.5,5.89-31.38-8.72-69.5-16.84-113.21-21.18Zm-27.34-37.77c2.48.3,4.95.6,7.43.9-1,8.38-2.01,16.76-3.01,25.14,5.16.62,10.32,1.24,15.48,1.86-.28,2.39-.57,4.77-.85,7.16-7.69-.94-15.38-1.87-23.07-2.81,1.34-10.75,2.68-21.49,4.02-32.24Z"/>
  </g>
</svg>